<?xml version="1.0" standalone="no"?><!DOCTYPE svg PUBLIC "-//W3C//DTD SVG 1.1//EN" "http://www.w3.org/Graphics/SVG/1.1/DTD/svg11.dtd"><svg class="icon" width="16px" height="16.00px" viewBox="0 0 1024 1024" version="1.1" xmlns="http://www.w3.org/2000/svg"><path fill="#ffffff" d="M644.021338 205.212802c49.216935-57.32152 44.753273-142.220119 44.753273-142.220119s-84.010369 7.80578-133.229351 65.196885c-49.220005 57.245795-44.763506 142.295843-44.763506 142.295843S594.798263 262.60493 644.021338 205.212802L644.021338 205.212802zM750.783897 536.112164c0-72.330352 39.921221-135.445832 98.731652-168.162978-41.111327-59.400878-113.451912-92.257194-163.709549-92.257194-60.45079 0-143.715169 42.670845-167.876452 42.670845-25.663496 0-79.492472-38.58683-151.162792-39.628556-59.178821-0.886183-158.653393 33.530674-193.45399 135.605467-34.791387 102.075817-33.156144 249.569032 39.626509 386.586662 58.369386 109.73117 109.962437 154.191778 159.851685 154.191778 49.958832 0 108.839871-38.138622 155.7646-38.138622 46.835701 0 90.707908 38.138622 139.103128 38.138622 48.325635 0 98.215906-39.702234 134.49518-94.488001 36.284391-54.875818 69.596078-140.148947 69.596078-140.148947s0.213871-2.301416 0.662079-5.499248C801.263591 687.105087 750.783897 617.593943 750.783897 536.112164L750.783897 536.112164zM750.783897 536.112164" /></svg>