<?xml version="1.0" standalone="no"?><!DOCTYPE svg PUBLIC "-//W3C//DTD SVG 1.1//EN" "http://www.w3.org/Graphics/SVG/1.1/DTD/svg11.dtd"><svg class="icon" width="16px" height="16.00px" viewBox="0 0 1024 1024" version="1.1" xmlns="http://www.w3.org/2000/svg"><path fill="#ffffff" d="M258.272 446.528 111.744 192.736C205.568 75.264 349.984 0 512 0 699.424 0 863.296 100.736 952.544 251.008L534.752 251.008C527.264 250.336 519.68 250.016 512 250.016 390.112 250.016 287.424 333.632 258.272 446.528ZM695.296 324.992 988.768 324.992C1011.52 382.944 1024 446.016 1024 512 1024 792.832 797.888 1020.8 517.824 1023.936L727.2 661.248C756.672 618.88 774.016 567.424 774.016 512 774.016 438.816 743.84 372.576 695.296 324.992ZM326.016 512C326.016 409.44 409.44 326.016 512 326.016 614.56 326.016 698.016 409.44 698.016 512 698.016 614.56 614.56 698.016 512 698.016 409.44 698.016 326.016 614.56 326.016 512ZM582.176 764.448 435.616 1018.336C189.088 981.44 0 768.8 0 512 0 420.768 23.872 335.168 65.696 260.96L274.72 623.04C316.608 712.128 407.2 774.016 512 774.016 536.288 774.016 559.84 770.656 582.176 764.448Z" /></svg>