<?xml version="1.0" standalone="no"?><!DOCTYPE svg PUBLIC "-//W3C//DTD SVG 1.1//EN" "http://www.w3.org/Graphics/SVG/1.1/DTD/svg11.dtd"><svg class="icon" width="16px" height="16.00px" viewBox="0 0 1024 1024" version="1.1" xmlns="http://www.w3.org/2000/svg"><path fill="#ffffff" d="M734.208 628.8384l236.05248 0c1.82272-16.36352 2.53952-33.09568 2.53952-50.19648 0-80.22016-21.52448-155.46368-59.12576-220.2624 38.87104-103.30112 37.49888-190.99648-14.56128-243.38432-49.50016-49.27488-182.29248-41.28768-332.41088 25.1904-11.10016-0.83968-22.3232-1.26976-33.62816-1.26976-206.04928 0-378.92096 141.80352-426.7008 332.84096 64.63488-82.75968 132.62848-142.7456 223.47776-186.44992-8.25344 7.74144-56.46336 55.64416-64.55296 63.75424-239.55456 239.47264-315.0848 552.30464-233.79968 633.61024 61.78816 61.76768 173.75232 51.34336 302.36672-11.65312 59.8016 30.45376 127.50848 47.63648 199.20896 47.63648 193.1264 0 356.80256-124.3136 416.09216-297.45152l-237.8752 0c-32.72704 60.37504-96.74752 101.4784-170.20928 101.4784s-137.48224-41.10336-170.20928-101.4784c-14.5408-27.27936-22.91712-58.55232-22.91712-91.648l0-0.7168 386.2528 0zM348.30336 512.79872c5.44768-97.11616 86.20032-174.592 184.77056-174.592s179.3024 77.47584 184.77056 174.592l-369.54112 0zM896.96256 163.79904c33.52576 33.87392 32.68608 96.21504 4.01408 174.01856-49.13152-74.91584-120.5248-133.9392-204.8-167.64928 90.112-38.64576 163.40992-43.76576 200.78592-6.38976zM93.4912 967.24992c-42.78272-42.8032-29.88032-132.608 25.23136-240.82432 34.304 96.27648 101.15072 177.09056 187.33056 229.15072-95.4368 43.3152-173.52704 50.66752-212.56192 11.6736z" /></svg>