<?xml version="1.0" standalone="no"?><!DOCTYPE svg PUBLIC "-//W3C//DTD SVG 1.1//EN" "http://www.w3.org/Graphics/SVG/1.1/DTD/svg11.dtd"><svg class="icon" width="16px" height="16.00px" viewBox="0 0 1024 1024" version="1.1" xmlns="http://www.w3.org/2000/svg"><path fill="#ffffff" d="M452.024421 234.85559q-6.290122 0.585128-8.850055 5.997558t-4.827303 5.41243q-2.852497 0.585128-2.852497-2.852497 0-6.875249 10.824861-8.557491l5.704994 0zM501.687126 242.827954q-2.267369 0.585128-6.582685-3.730188t-10.02031-2.559933q13.677358-6.290122 18.285237 1.170255 1.682242 3.437625-1.682242 5.119866zM301.134642 486.826162q-2.267369-0.585128-3.437625 1.682242t-2.559933 7.167813-3.145061 7.6798-5.704994 7.460377q-4.022752 5.704994-0.585128 6.875249 2.267369 0.585128 7.167813-4.022752t7.167813-10.312874q0.585128-1.682242 1.170255-4.022752t1.170255-3.437625 0.877691-2.559933 0.292564-2.267369l0-1.682242t-0.585128-1.462819-1.682242-1.170255zM789.716187 691.986527q0-10.312874-31.450608-23.990232 2.267369-8.557491 4.315316-15.725304t2.852497-14.847613 1.682242-12.28768 0.292564-12.872807-0.585128-11.117424-1.974806-12.580243-2.267369-11.702552-2.852497-14.262485-3.145061-15.140177q-5.704994-27.427856-26.842729-58.878465t-41.178355-42.860597q13.677358 11.409988 32.547723 47.395336 49.735846 92.596443 30.865481 158.862143-6.290122 22.819976-28.598111 23.990232-17.70011 2.267369-22.015426-10.605438t-4.534739-47.687899-6.582685-61.145834q-5.119866-22.30799-11.117424-39.422972t-11.117424-25.965037-8.850055-13.969921-7.460377-8.557491-4.315316-4.022752q-7.972364-35.40022-17.70011-58.878465t-16.822418-32.035736-13.457935-18.870365-8.557491-22.819976q-2.267369-11.995116 3.437625-30.572917t2.559933-28.305548-25.453051-14.262485q-8.557491-1.682242-25.453051-10.312874t-20.260043-9.142619q-4.534739-0.585128-6.290122-14.847613t4.534739-29.110098 20.552607-15.43274q21.137735-1.682242 29.110098 17.114982t2.267369 33.13285q-6.290122 10.824861-1.170255 15.140177t17.114982 0.292564q7.460377-2.267369 7.460377-20.552607l0-21.137735q-2.852497-17.114982-7.6798-28.598111t-11.995116-17.407546-13.457935-8.557491-15.43274-4.315316q-61.145834 4.534739-50.83296 76.578575 0 8.557491-0.585128 8.557491-5.119866-5.119866-16.822418-5.997558t-18.870365 0.292564-8.850055-2.852497q0.585128-32.547723-9.142619-51.418088t-25.745614-19.455493q-15.43274-0.585128-23.697668 15.725304t-9.435183 34.010542q-0.585128 8.557491 1.974806 21.137735t7.460377 21.430298 8.850055 7.6798q5.704994-1.682242 9.142619-7.972364 2.267369-5.119866-4.022752-4.534739-4.022752 0-8.850055-8.264927t-5.41243-19.162929q-0.585128-12.580243 5.119866-21.137735t19.455493-7.972364q9.727746 0 15.43274 11.995116t5.41243 22.30799-0.877691 12.580243q-12.580243 8.557491-17.70011 16.602996-4.534739 6.875249-15.725304 13.457935t-11.702552 7.167813q-7.460377 7.972364-8.850055 15.43274t4.315316 10.312874q7.972364 4.534739 14.262485 11.117424t9.142619 10.824861 10.605438 7.460377 20.260043 3.730188q26.842729 1.170255 58.293337-8.557491 1.170255-0.585128 13.165371-4.022752t19.748056-5.997558 16.822418-7.460377 11.995116-10.02031q5.119866-7.972364 11.409988-4.534739 2.852497 1.682242 3.730188 4.827303t-1.682242 6.875249-9.435183 5.41243q-11.409988 3.437625-32.255159 12.28768t-25.965037 11.117424q-25.160487 10.824861-40.0081 13.165371-14.262485 2.852497-45.127966-1.170255-5.704994-1.170255-5.119866 1.170255t9.727746 10.824861q14.262485 13.165371 38.252717 12.580243 9.727746-0.585128 20.552607-4.022752t20.552607-7.972364 19.162929-10.02031 17.114982-9.727746 13.969921-6.875249 10.02031-1.462819 4.827303 6.290122q0 1.170255-0.585128 2.559933t-2.267369 2.852497-3.437625 2.559933-4.827303 2.852497-5.119866 2.559933-5.704994 2.852497-5.41243 2.559933q-16.017868 7.972364-38.545281 25.160487t-38.033294 24.575359-28.012984 0.585128q-11.995116-6.290122-35.985347-41.690341-12.580243-17.70011-14.262485-12.580243-0.585128 1.682242-0.585128 5.704994 0 14.262485-8.557491 32.255159t-16.822418 31.743172-11.995116 33.13285 6.582685 35.985347q-13.165371 3.437625-35.692784 51.418088t-27.135292 80.601327q-1.170255 10.312874-0.877691 39.422972t-3.145061 33.717978q-4.534739 13.677358-16.602996 1.682242-18.285237-17.70011-20.552607-53.685457-1.170255-16.017868 2.267369-32.035736 2.267369-10.824861-0.585128-10.312874l-2.267369 2.852497q-20.552607 37.155603 5.704994 94.863812 2.852497 6.875249 14.262485 16.017868t13.677358 11.409988q11.409988 13.165371 59.463592 51.710652t53.173471 43.738288q9.142619 8.557491 10.02031 21.722862t-7.972364 24.575359-25.965037 13.165371q4.534739 8.557491 16.602996 25.453051t16.017868 30.865481 4.022752 40.300663q26.257601-13.677358 4.022752-52.588343-2.267369-4.534739-5.997558-9.142619t-5.41243-6.875249-1.170255-3.437625q1.682242-2.852497 7.460377-5.41243t11.409988 1.462819q26.257601 29.695226 94.863812 20.552607 75.993447-8.557491 101.153934-49.735846 13.165371-21.722862 19.455493-17.114982 6.875249 3.437625 5.704994 29.695226-0.585128 14.262485-13.165371 52.588343-5.119866 13.165371-3.437625 21.430298t13.677358 8.850055q1.682242-10.824861 8.264927-44.030852t7.6798-51.418088q1.170255-11.995116-3.730188-41.982905t-4.315316-55.44084 13.165371-40.300663q8.557491-10.312874 29.110098-10.312874 0.585128-21.137735 19.748056-30.280353t41.397778-5.997558 34.303105 12.872807zM430.886687 219.42285q1.682242-9.727746-1.462819-17.114982t-6.582685-8.557491q-5.119866-1.170255-5.119866 4.022752 1.170255 2.852497 2.852497 3.437625 5.704994 0 4.022752 8.557491-1.682242 11.409988 4.534739 11.409988 1.682242 0 1.682242-1.682242zM670.277016 331.986771q-1.170255-4.534739-3.730188-6.582685t-7.460377-2.852497-8.264927-3.145061q-2.852497-1.682242-5.41243-4.534739t-4.022752-4.534739-3.145061-3.730188-2.267369-2.267369-2.267369 0.877691q-7.972364 9.142619 4.022752 24.867923t22.30799 17.992674q5.119866 0.585128 8.264927-4.534739t1.974806-11.409988zM568.537954 210.280231q0-6.290122-2.852497-11.117424t-6.290122-7.167813-5.119866-1.682242q-7.972364 0.585128-4.022752 4.022752l2.267369 1.170255q7.972364 2.267369 10.312874 17.70011 0 1.682242 4.534739-1.170255zM599.403435 77.163702q0-1.170255-1.462819-2.852497t-5.119866-4.022752-5.41243-3.437625q-8.557491-8.557491-13.677358-8.557491-5.119866 0.585128-6.582685 4.315316t-0.585128 7.460377-0.292564 7.167813q-0.585128 2.267369-3.437625 5.997558t-3.437625 5.119866 1.682242 4.827303q2.267369 1.682242 4.534739 0t6.290122-5.119866 8.557491-5.119866q0.585128-0.585128 5.119866-0.585128t8.557491-1.170255 5.119866-4.022752zM922.247588 843.388293q11.409988 6.875249 17.70011 13.969921t6.875249 13.677358-1.462819 12.872807-8.850055 12.580243-13.457935 11.117424-17.114982 10.605438-17.992674 9.435183-18.285237 8.850055-15.43274 7.460377q-21.722862 10.824861-48.858155 32.035736t-43.15316 36.570475q-9.727746 9.142619-38.837844 11.117424t-50.83296-8.264927q-10.312874-5.119866-16.822418-13.457935t-9.435183-14.555049-12.580243-11.117424-26.842729-5.41243q-25.160487-0.585128-74.311205-0.585128-10.824861 0-32.547723 0.877691t-33.13285 1.462819q-25.160487 0.585128-45.42053 8.557491t-30.572917 17.114982-24.867923 16.310432-30.572917 6.582685q-16.602996-0.585128-63.413204-17.70011t-83.453824-24.575359q-10.824861-2.267369-29.110098-5.41243t-28.598111-5.119866-22.600554-5.41243-19.162929-8.264927-9.727746-11.117424q-5.704994-13.165371 4.022752-38.033294t10.312874-31.158045q0.585128-9.142619-2.267369-22.819976t-5.704994-24.282795-2.559933-20.845171 5.997558-15.43274q7.972364-6.875249 32.547723-7.972364t34.303105-6.875249q17.114982-10.312874 23.990232-19.967479t6.875249-29.110098q11.995116 41.690341-18.285237 60.560706-18.285237 11.409988-47.395336 8.557491-19.455493-1.682242-24.575359 5.704994-7.460377 8.557491 2.852497 32.547723 1.170255 3.437625 4.534739 10.312874t4.827303 10.312874 2.559933 9.727746 0.585128 12.580243q0 8.557491-9.727746 28.012984t-7.972364 27.427856q1.682242 9.727746 21.137735 14.847613 11.409988 3.437625 48.273027 10.605438t56.830518 11.702552q13.677358 3.437625 42.275469 12.580243t47.175913 13.165371 31.743172 2.267369q24.575359-3.437625 36.863039-16.017868t13.165371-27.427856-4.315316-33.425414-10.824861-29.695226-11.409988-20.845171q-69.118198-108.54117-96.546054-138.309536-38.837844-42.275469-64.583459-22.819976-6.290122 5.119866-8.557491-8.557491-1.682242-9.142619-1.170255-21.722862 0.585128-16.602996 5.704994-29.695226t13.677358-26.842729 12.580243-23.990232q4.534739-11.995116 15.140177-41.178355t16.822418-44.542838 17.114982-34.888233 22.30799-30.865481q62.828076-81.698441 70.87358-111.393667-6.875249-63.998331-9.142619-177.147381-1.170255-51.418088 13.677358-86.598885t60.560706-59.683015q22.30799-11.995116 59.463592-11.995116 30.280353-0.585128 60.560706 7.6798t50.83296 23.697668q32.547723 23.990232 52.295779 69.410761t16.822418 84.258374q-2.852497 54.270585 17.114982 122.291668 19.455493 64.583459 75.993447 124.559038 31.450608 33.717978 56.830518 93.108429t34.010542 109.126297q4.534739 28.012984 2.852497 48.273027t-6.875249 31.743172-11.409988 12.580243q-5.704994 1.170255-13.457935 10.824861t-15.43274 20.260043-23.11254 19.162929-34.888233 7.972364q-10.312874-0.585128-17.992674-2.852497t-12.872807-7.6798-7.6798-8.850055-6.582685-11.702552-5.119866-11.117424q-12.580243-21.137735-23.405104-17.114982t-16.017868 28.012984 4.022752 55.44084q11.409988 40.0081 0.585128 111.393667-5.704994 37.155603 10.312874 57.415646t41.690341 18.870365 48.565591-20.260043q33.717978-28.012984 51.125524-38.033294t59.171028-24.282795q30.280353-10.312874 44.030852-20.845171t10.605438-19.748056-14.262485-16.310432-29.402662-13.457935q-18.870365-6.290122-28.305548-27.427856t-8.557491-41.397778 8.850055-27.135292q0.585128 17.70011 4.534739 32.255159t8.264927 23.11254 11.702552 16.310432 11.995116 10.824861 12.28768 7.460377 9.435183 5.41243z" /></svg>