<?xml version="1.0" standalone="no"?><!DOCTYPE svg PUBLIC "-//W3C//DTD SVG 1.1//EN" "http://www.w3.org/Graphics/SVG/1.1/DTD/svg11.dtd"><svg class="icon" width="16px" height="16.00px" viewBox="0 0 1024 1024" version="1.1" xmlns="http://www.w3.org/2000/svg"><path fill="#ffffff" d="M542.285714 510.285714q0 14.857143-9.428571 25.714286t-23.714286 10.857143q-14.857143 0-25.714286-9.428571t-10.857143-23.714286q0-14.857143 9.714286-25.714286t24-10.857143 25.142857 9.428571 10.857143 23.714286zm8.571429 33.142857l200-332q-5.142857 4.571429-38.571429 35.714286t-71.714286 66.571429-78 72.571429-66.857143 63.142857-28.857143 29.428571l-199.428571 331.428571q4-4 38.285714-35.428571t72-66.571429 77.714286-72.571429 66.857143-63.428571 28.571429-28.857143zm369.714286-31.428571q0 114.857143-59.428571 212-1.714286-1.142857-9.714286-6.285714t-15.142857-9.428571-9.428571-4.285714q-7.428571 0-7.428571 7.428571 0 5.714286 33.714286 25.142857-42.285714 64-105.428571 108.857143t-138 63.142857l-9.142857-38.285714q-0.571429-5.714286-8.571429-5.714286-2.857143 0-4.571429 3.142857t-1.142857 5.428571l9.142857 38.857143q-41.142857 8.571429-83.428571 8.571429-113.714286 0-212.571429-60 0.571429-1.142857 7.428571-11.714286t12.285714-19.142857 5.428571-10.857143q0-7.428571-7.428571-7.428571-3.428571 0-9.714286 8.285714t-12.857143 19.714286-7.714286 13.142857q-64.571429-42.857143-109.714286-107.142857t-62.857143-139.714286l39.428571-8.571429q5.714286-1.714286 5.714286-8.571429 0-2.857143-3.142857-4.571429t-6-1.142857l-38.857143 8.571429q-8-41.142857-8-79.428571 0-117.714286 62.285714-216.571429 1.142857 0.571429 10.571429 6.857143t17.142857 10.857143 10 4.571429q7.428571 0 7.428571-6.857143 0-3.428571-7.142857-8.857143t-18.571429-12.285714l-11.428571-6.857143q44-64 108-108t139.428571-61.142857l8.571429 38.285714q1.142857 5.714286 8.571429 5.714286 2.857143 0 4.571429-3.142857t1.142857-6l-8.571429-37.714286q40.571429-7.428571 76.571429-7.428571 116.571429 0 216.571429 62.285714-22.285714 32-22.285714 37.142857 0 7.428571 6.857143 7.428571 6.285714 0 27.428571-36.571429 63.428571 42.857143 107.142857 106.285714t61.428571 137.714286l-32 6.857143q-5.714286 1.142857-5.714286 9.142857 0 2.857143 3.142857 4.571429t5.428571 1.142857l32.571429-7.428571q8 41.142857 8 80zm48.571429 0q0-93.142857-36.285714-177.714286t-97.428571-145.714286-145.714286-97.428571-177.714286-36.285714-177.714286 36.285714-145.714286 97.428571-97.428571 145.714286-36.285714 177.714286 36.285714 177.714286 97.428571 145.714286 145.714286 97.428571 177.714286 36.285714 177.714286-36.285714 145.714286-97.428571 97.428571-145.714286 36.285714-177.714286zm54.857143 0q0 104-40.571429 198.857143t-109.142857 163.428571-163.428571 109.142857-198.857143 40.571429-198.857143-40.571429-163.428571-109.142857-109.142857-163.428571-40.571429-198.857143 40.571429-198.857143 109.142857-163.428571 163.428571-109.142857 198.857143-40.571429 198.857143 40.571429 163.428571 109.142857 109.142857 163.428571 40.571429 198.857143z" /></svg>