<?xml version="1.0" standalone="no"?><!DOCTYPE svg PUBLIC "-//W3C//DTD SVG 1.1//EN" "http://www.w3.org/Graphics/SVG/1.1/DTD/svg11.dtd"><svg class="icon" width="16px" height="16.00px" viewBox="0 0 1024 1024" version="1.1" xmlns="http://www.w3.org/2000/svg"><path fill="#ffffff" d="M946.481 387.1l-12.060 64.829c-14.073-108.551-31.663-165.344-31.663-165.344-10.048-42.213-40.707-70.863-40.707-70.863 18.599 20.606 16.080 71.869 16.080 71.869-28.639-64.833-68.85-88.454-68.85-88.454-139.21-136.194-302.545-125.137-302.545-125.137-209.571-5.028-318.124 140.218-318.124 140.218-23.116-21.109-20.102-54.279-20.102-54.279-50.761 54.783-43.222 145.744-43.222 145.744l-25.634 51.767c-13.062 16.586-23.116 87.95-23.116 87.95v9.542l-3.017 132.682 5.532-33.168c30.15 185.445 130.164 258.82 130.164 258.82 232.186 201.526 459.844 86.441 459.844 86.441 217.613-76.892 254.805-301.541 254.805-301.541 33.168-101.017 22.614-211.081 22.614-211.081v0.004h-0.001zM794.707 350.91c25.125 25.13-2.003 165.857-2.003 165.857l-30.159-30.159c10.051 178.913-44.221 187.958-44.221 187.958l13.062-71.361-4.021 13.068c-132.677 223.137-339.731 33.165-339.731 33.165 84.429 25.13 131.67-12.060 131.67-12.060 40.199-36.179 63.323-35.182 63.323-35.182 27.139 4.021 13.066-25.121 13.066-25.121-32.163-39.201-83.425-25.133-83.425-25.133-81.413 41.213-121.619 7.043-121.619 7.043-96.499-58.305-28.145-96.499-28.145-96.499 10.057-4.021 52.271 15.074 52.271 15.074 5.019-15.074-7.042-62.316-7.042-62.316l73.38-51.265 14.067-15.074 2.007-22.113-3.017-10.051-66.338-1.008c-39.2 7.043-51.265-36.179-51.265-36.179 7.037-50.261 61.318-84.438 61.318-84.438-105.548 7.037-117.606 52.27-117.606 52.27-76.389-11.056-97.497 4.021-97.497 4.021l-34.175-36.185 16.087 14.069 16.079-9.050c106.545-113.581 281.429-118.603 281.429-118.603 155.799 11.057 196.006 51.259 196.006 51.259-98.506-13.062-94.483 0-94.483 0 70.355 8.043 124.633 42.218 124.633 42.218-50.251-3.017-87.447 12.064-87.447 12.064 175.904 41.21 197.012 182.93 197.012 182.93-24.123-54.269-43.22-39.2-43.22-39.2v0 0zM794.707 350.91z" /></svg>